<svg width="16" height="16" viewBox="0 0 16 16" fill="none" xmlns="http://www.w3.org/2000/svg">
<mask id="path-2-inside-1" fill="white">
<path fill-rule="evenodd" clip-rule="evenodd" d="M8 15C11.866 15 15 11.866 15 8C15 4.13401 11.866 1 8 1C4.13401 1 1 4.13401 1 8C1 11.866 4.13401 15 8 15ZM7 4V9L8.5547 9.83205L11.5547 7.83205L10.4453 6.16795L9 7.13148V4H7Z"/>
</mask>
<path fill-rule="evenodd" clip-rule="evenodd" d="M8 15C11.866 15 15 11.866 15 8C15 4.13401 11.866 1 8 1C4.13401 1 1 4.13401 1 8C1 11.866 4.13401 15 8 15ZM7 4V9L8.5547 9.83205L11.5547 7.83205L10.4453 6.16795L9 7.13148V4H7Z" fill="white"/>
<path d="M7 9H5V10.198L6.05628 10.7633L7 9ZM7 4V2H5V4H7ZM8.5547 9.83205L7.61098 11.5954L8.66727 12.1607L9.6641 11.4962L8.5547 9.83205ZM11.5547 7.83205L12.6641 9.49615L14.3282 8.38675L13.2188 6.72265L11.5547 7.83205ZM10.4453 6.16795L12.1094 5.05855L11 3.39445L9.3359 4.50385L10.4453 6.16795ZM9 7.13148H7V10.8685L10.1094 8.79558L9 7.13148ZM9 4H11V2H9V4ZM13 8C13 10.7614 10.7614 13 8 13V17C12.9706 17 17 12.9706 17 8H13ZM8 3C10.7614 3 13 5.23858 13 8H17C17 3.02944 12.9706 -1 8 -1V3ZM3 8C3 5.23858 5.23858 3 8 3V-1C3.02944 -1 -1 3.02944 -1 8H3ZM8 13C5.23858 13 3 10.7614 3 8H-1C-1 12.9706 3.02944 17 8 17V13ZM9 9V4H5V9H9ZM9.49842 8.0687L7.94372 7.23665L6.05628 10.7633L7.61098 11.5954L9.49842 8.0687ZM10.4453 6.16795L7.4453 8.16795L9.6641 11.4962L12.6641 9.49615L10.4453 6.16795ZM8.7812 7.27735L9.8906 8.94145L13.2188 6.72265L12.1094 5.05855L8.7812 7.27735ZM10.1094 8.79558L11.5547 7.83205L9.3359 4.50385L7.8906 5.46738L10.1094 8.79558ZM7 4V7.13148H11V4H7ZM7 6H9V2H7V6Z" fill="white" mask="url(#path-2-inside-1)"/>
</svg>
