<svg width="152" height="48" viewBox="0 0 152 48" fill="none" xmlns="http://www.w3.org/2000/svg">
<path d="M56 30.707V13.6445H61.25C62.75 13.6445 64.0898 13.9844 65.2695 14.6641C66.457 15.3359 67.3828 16.2969 68.0469 17.5469C68.7109 18.7891 69.043 20.2031 69.043 21.7891V22.5742C69.043 24.1602 68.7148 25.5703 68.0586 26.8047C67.4102 28.0391 66.4922 28.9961 65.3047 29.6758C64.1172 30.3555 62.7773 30.6992 61.2852 30.707H56ZM59.5156 16.4922V27.8828H61.2148C62.5898 27.8828 63.6406 27.4336 64.3672 26.5352C65.0938 25.6367 65.4648 24.3516 65.4805 22.6797V21.7773C65.4805 20.043 65.1211 18.7305 64.4023 17.8398C63.6836 16.9414 62.6328 16.4922 61.25 16.4922H59.5156Z" fill="black"/>
<path d="M74.9609 30.707H71.5625V18.0273H74.9609V30.707ZM71.3633 14.7461C71.3633 14.2383 71.5312 13.8203 71.8672 13.4922C72.2109 13.1641 72.6758 13 73.2617 13C73.8398 13 74.3008 13.1641 74.6445 13.4922C74.9883 13.8203 75.1602 14.2383 75.1602 14.7461C75.1602 15.2617 74.9844 15.6836 74.6328 16.0117C74.2891 16.3398 73.832 16.5039 73.2617 16.5039C72.6914 16.5039 72.2305 16.3398 71.8789 16.0117C71.5352 15.6836 71.3633 15.2617 71.3633 14.7461Z" fill="black"/>
<path d="M82.5078 26.5703L84.8633 18.0273H88.4023L84.125 30.707H80.8906L76.6133 18.0273H80.1523L82.5078 26.5703Z" fill="black"/>
<path d="M94.6484 26.5703L97.0039 18.0273H100.543L96.2656 30.707H93.0312L88.7539 18.0273H92.293L94.6484 26.5703Z" fill="black"/>
<path d="M106.777 25.9141L109.121 18.0273H112.754L107.656 32.6758L107.375 33.3438C106.617 35 105.367 35.8281 103.625 35.8281C103.133 35.8281 102.633 35.7539 102.125 35.6055V33.0391L102.641 33.0508C103.281 33.0508 103.758 32.9531 104.07 32.7578C104.391 32.5625 104.641 32.2383 104.82 31.7852L105.219 30.7422L100.777 18.0273H104.422L106.777 25.9141Z" fill="black"/>
<path d="M121.684 29.418C120.848 30.4336 119.691 30.9414 118.215 30.9414C116.855 30.9414 115.816 30.5508 115.098 29.7695C114.387 28.9883 114.023 27.8438 114.008 26.3359V18.0273H117.395V26.2188C117.395 27.5391 117.996 28.1992 119.199 28.1992C120.348 28.1992 121.137 27.8008 121.566 27.0039V18.0273H124.965V30.707H121.777L121.684 29.418Z" fill="black"/>
<path d="M138.934 24.4844C138.934 26.4375 138.488 28.0039 137.598 29.1836C136.715 30.3555 135.52 30.9414 134.012 30.9414C132.73 30.9414 131.695 30.4961 130.906 29.6055V35.582H127.52V18.0273H130.66L130.777 19.2695C131.598 18.2852 132.668 17.793 133.988 17.793C135.551 17.793 136.766 18.3711 137.633 19.5273C138.5 20.6836 138.934 22.2773 138.934 24.3086V24.4844ZM135.547 24.2383C135.547 23.0586 135.336 22.1484 134.914 21.5078C134.5 20.8672 133.895 20.5469 133.098 20.5469C132.035 20.5469 131.305 20.9531 130.906 21.7656V26.957C131.32 27.793 132.059 28.2109 133.121 28.2109C134.738 28.2109 135.547 26.8867 135.547 24.2383Z" fill="black"/>
<circle cx="14.8076" cy="14.8076" r="5" transform="rotate(-45 14.8076 14.8076)" fill="white"/>
<circle cx="33.1924" cy="33.1924" r="5" transform="rotate(-45 33.1924 33.1924)" fill="#A6A6A6"/>
<path d="M14.1005 32.4853C12.5384 30.9232 12.5384 28.3905 14.1005 26.8284L26.8284 14.1005C28.3905 12.5384 30.9232 12.5384 32.4853 14.1005V14.1005L14.1005 32.4853V32.4853Z" fill="white"/>
<path d="M15.5147 33.8995L33.8995 15.5147V15.5147C35.4616 17.0768 35.4616 19.6095 33.8995 21.1716L21.1716 33.8995C19.6095 35.4616 17.0768 35.4616 15.5147 33.8995V33.8995Z" fill="#A6A6A6"/>
</svg>
